<svg xmlns="http://www.w3.org/2000/svg" version="1.1" xmlns:xlink="http://www.w3.org/1999/xlink" xmlns:svgjs="http://svgjs.dev/svgjs" width="1000" height="1000" viewBox="0 0 1000 1000"><rect width="1000" height="1000" fill="#0080ff"></rect><g transform="matrix(0.7,0,0,0.7,149.3965678627144,6.549890307962357)"><svg viewBox="0 0 175 247" data-background-color="#0080ff" preserveAspectRatio="xMidYMid meet" height="1411" width="1000" xmlns="http://www.w3.org/2000/svg" xmlns:xlink="http://www.w3.org/1999/xlink"><g id="tight-bounds" transform="matrix(1,0,0,1,0.1508580343214021,-0.09999705774356471)"><svg viewBox="0 0 174.69828393135722 247.2" height="247.2" width="174.69828393135722"><g><svg viewBox="0 0 174.69828393135722 247.2" height="247.2" width="174.69828393135722"><g><svg viewBox="0 0 174.69828393135722 247.2" height="247.2" width="174.69828393135722"><g id="textblocktransform"><svg viewBox="0 0 174.69828393135722 247.2" height="247.2" width="174.69828393135722" id="textblock"><g><svg viewBox="0 0 174.69828393135722 247.2" height="247.2" width="174.69828393135722"><g transform="matrix(1,0,0,1,0,0)"><svg width="174.69828393135722" viewBox="1.2999999523162842 -31.549999237060547 22.650001525878906 32.04999923706055" height="247.2" data-palette-color="#ffffff"><path d="M22.25-29.95L20.9-21.8Q16.1-23.25 13.88-23.25 11.65-23.25 10.83-21.3 10-19.35 10-15.13 10-10.9 10.78-8.97 11.55-7.05 13.95-7.05L13.95-7.05Q14.65-7.05 16.65-7.45L16.65-7.45 16.65-11.25 14.4-11.25 14.4-17.15 23.95-17.15 23.95 0 18.05 0 17.25-1.6 17.05-1.6Q16.2-0.9 15.7-0.55L15.7-0.55Q14.3 0.5 11.75 0.5L11.75 0.5Q1.3 0.5 1.3-15.3L1.3-15.3Q1.3-23.2 4.05-27.38 6.8-31.55 13.3-31.55L13.3-31.55Q18.5-31.55 22.25-29.95L22.25-29.95Z" opacity="1" transform="matrix(1,0,0,1,0,0)" fill="#ffffff" class="wordmark-text-0" data-fill-palette-color="primary" id="text-0"></path></svg></g></svg></g></svg></g></svg></g><g></g></svg></g><defs></defs></svg><rect width="174.69828393135722" height="247.2" fill="none" stroke="none" visibility="hidden"></rect></g></svg></g></svg>